<svg width="100%" height="100%" viewBox="0 0 30 26" xmlns="http://www.w3.org/2000/svg">
<path d="M20.5826 8.6763C17.8466 8.81836 15.4675 9.64289 13.5359 11.5056C11.5843 13.3875 10.6935 15.6935 10.937 18.5522C9.86761 18.4205 8.89357 18.2756 7.91396 18.1936C7.57566 18.1653 7.17415 18.2055 6.88762 18.3663C5.93643 18.8998 5.02451 19.5022 3.9437 20.1738C4.14203 19.2822 4.2704 18.5014 4.49763 17.7504C4.66478 17.1984 4.58734 16.8912 4.07584 16.5317C0.79147 14.2267 -0.592932 10.7771 0.443111 7.22558C1.40165 3.94008 3.75561 1.94753 6.9541 0.908839C11.3198 -0.508682 16.2259 0.937275 18.8806 4.38274C19.8393 5.62733 20.4273 7.02421 20.5826 8.6763ZM7.99062 7.56967C8.01582 6.9201 7.44962 6.3349 6.77702 6.31533C6.08844 6.29522 5.52206 6.81831 5.50196 7.49281C5.48161 8.1764 6.00759 8.72425 6.7012 8.74174C7.38882 8.75911 7.96519 8.2353 7.99062 7.56967ZM14.5604 6.31491C13.8853 6.32728 13.3149 6.8988 13.3269 7.55093C13.3392 8.22691 13.8988 8.75572 14.5929 8.74745C15.2889 8.73912 15.8167 8.20466 15.8101 7.51446C15.8043 6.83687 15.2473 6.30242 14.5604 6.31491Z"/>
<path d="M26.7293 25.6318C25.863 25.2483 25.0683 24.673 24.2222 24.5851C23.3793 24.4976 22.4933 24.981 21.6115 25.0706C18.9254 25.3438 16.5191 24.5997 14.5348 22.7756C10.761 19.3058 11.3003 13.9857 15.6664 11.1422C19.5468 8.61512 25.2377 9.45762 27.9735 12.9641C30.3611 16.0238 30.0804 20.0855 27.1658 22.656C26.3224 23.3999 26.0189 24.0121 26.56 24.9928C26.6599 25.1739 26.6713 25.4031 26.7293 25.6318ZM16.8677 16.1404C17.4192 16.1409 17.8734 15.7119 17.8943 15.1704C17.9163 14.5971 17.4524 14.1162 16.8749 14.1138C16.3031 14.1113 15.8241 14.5988 15.844 15.1636C15.8627 15.7033 16.3201 16.1397 16.8677 16.1404ZM23.225 14.1161C22.6898 14.1124 22.2351 14.5479 22.2133 15.0853C22.1901 15.6601 22.6395 16.1321 23.2118 16.1336C23.7652 16.1353 24.2025 15.7193 24.2226 15.1718C24.2441 14.5957 23.7945 14.12 23.225 14.1161Z"/>
</svg>
