<svg width="100%" height="100%" viewBox="0 0 26 27" xmlns="http://www.w3.org/2000/svg">
<path d="M12.7895 6.47353C9.22409 6.47353 6.26993 9.47353 6.26993 13.2104C6.26993 16.9472 9.17315 19.9472 12.7895 19.9472C16.4058 19.9472 19.309 16.8946 19.309 13.2104C19.309 9.52616 16.3548 6.47353 12.7895 6.47353ZM12.7895 17.5262C10.4974 17.5262 8.61288 15.5788 8.61288 13.2104C8.61288 10.8419 10.4974 8.89458 12.7895 8.89458C15.0815 8.89458 16.966 10.8419 16.966 13.2104C16.966 15.5788 15.0815 17.5262 12.7895 17.5262Z"/>
<path d="M19.5637 7.84205C20.3794 7.84205 21.0407 7.1587 21.0407 6.31574C21.0407 5.47278 20.3794 4.78942 19.5637 4.78942C18.7479 4.78942 18.0866 5.47278 18.0866 6.31574C18.0866 7.1587 18.7479 7.84205 19.5637 7.84205Z"/>
<path d="M23.3837 2.36834C22.0594 0.947291 20.1749 0.210449 18.0357 0.210449H7.5433C3.11206 0.210449 0.157898 3.26308 0.157898 7.84203V18.6315C0.157898 20.8947 0.870971 22.842 2.29712 24.2631C3.67233 25.6315 5.50594 26.3157 7.59423 26.3157H17.9847C20.1749 26.3157 22.0085 25.5789 23.3328 24.2631C24.708 22.8947 25.4211 20.9473 25.4211 18.6841V7.84203C25.4211 5.6315 24.708 3.73676 23.3837 2.36834ZM23.18 18.6841C23.18 20.3157 22.6197 21.6315 21.7029 22.5262C20.7861 23.421 19.5127 23.8947 17.9847 23.8947H7.59423C6.06622 23.8947 4.79287 23.421 3.87606 22.5262C2.95926 21.5789 2.50085 20.2631 2.50085 18.6315V7.84203C2.50085 6.26308 2.95926 4.94729 3.87606 3.99992C4.74194 3.10519 6.06622 2.6315 7.59423 2.6315H18.0866C19.6146 2.6315 20.8879 3.10519 21.8048 4.05255C22.6706 4.99992 23.18 6.31571 23.18 7.84203V18.6841Z"/>
</svg>
