<svg
    width="100%"
    height="100%"
    viewBox="0 0 24 24"
    xmlns="http://www.w3.org/2000/svg">
<path d="M12 23C18.0751 23 23 18.0751 23 12C23 5.92487 18.0751 1 12 1C5.92487 1 1 5.92487 1 12C1 18.0751 5.92487 23 12 23Z" stroke-width="2" stroke-miterlimit="10" stroke-linecap="round" stroke-linejoin="round"/>
<path d="M12 23C13.09 23 16.5 19.031 16.5 12C16.5 5.031 13.16 1 12 1M12 23C10.91 23 7.5 19.031 7.5 12C7.5 5.031 10.84 1 12 1V23ZM2 8H22H2ZM2 16H22H2Z" stroke-width="2" stroke-miterlimit="10" stroke-linecap="round" stroke-linejoin="round"/>
</svg>
