<svg width="100%" height="100%" viewBox="0 0 23 26" xmlns="http://www.w3.org/2000/svg">
<path d="M8.58918 8.97833L13.3183 2.26507C14.2114 1.00107 15.3666 0.368652 16.7813 0.368652C17.9357 0.368652 18.9345 0.770336 19.7785 1.57202C20.6217 2.37539 21.0446 3.33539 21.0446 4.4537C21.0446 5.28065 20.8211 6.01076 20.3742 6.64402L16.1109 12.7173L21.3239 19.1922C21.8448 19.8373 22.1053 20.591 22.1053 21.4541C22.1053 22.5977 21.6953 23.5788 20.877 24.4006C20.0579 25.2217 19.0642 25.6318 17.8979 25.6318C16.6197 25.6318 15.6459 25.2251 14.9755 24.4099L8.58918 16.6028V20.9068C8.58918 22.1354 8.37172 23.0903 7.93766 23.7708C7.14346 25.012 5.98911 25.6318 4.47463 25.6318C3.0968 25.6318 2.02927 25.1762 1.27203 24.2642C0.564635 23.4246 0.21051 22.3122 0.21051 20.9253V4.96486C0.21051 3.65202 0.570652 2.56992 1.29008 1.71855C2.04818 0.819179 3.09079 0.368652 4.41876 0.368652C5.68484 0.368652 6.73948 0.819179 7.5844 1.71855C8.05542 2.21792 8.35367 2.72149 8.47744 3.23265C8.55222 3.54844 8.58918 4.13876 8.58918 5.00191V8.97833Z"/>
</svg>
