<svg width="100%" height="100%" viewBox="0 0 33 20" xmlns="http://www.w3.org/2000/svg">
<path fill-rule="evenodd" clip-rule="evenodd" d="M17.1923 19.4115C18.2576 19.4115 18.2576 17.9291 18.2576 17.3541C18.2576 16.3254 19.3228 15.2967 20.388 15.2967C21.4532 15.2967 23.28 17.0609 24.6488 18.3828C25.714 19.4115 25.714 19.4115 26.7792 19.4115C27.8444 19.4115 29.9748 19.4115 29.9748 19.4115C29.9748 19.4115 32.1052 19.3333 32.1052 17.3541C32.1052 16.7111 31.3756 15.6207 28.9096 13.2393C26.7792 11.1818 25.6863 12.2445 28.9096 8.09572C30.8728 5.56922 32.3012 3.28035 32.0562 2.61992C31.8219 1.98932 26.3616 0.985302 25.714 1.92348C23.5836 5.0096 23.1926 5.7657 22.5184 7.06701C21.4532 9.12443 21.3477 10.1531 20.388 10.1531C19.4197 10.1531 19.3228 8.15641 19.3228 7.06701C19.3228 3.66611 19.833 1.26099 18.2576 0.894775C18.2576 0.894775 16.1271 0.894775 15.0619 0.894775C13.347 0.894775 11.8663 1.92348 11.8663 1.92348C11.8663 1.92348 10.5444 2.91927 10.8011 2.95219C11.1185 2.99334 12.9315 2.5263 12.9315 3.9809C12.9315 5.0096 12.9315 6.03831 12.9315 6.03831C12.9315 6.03831 12.9411 10.1531 11.8663 10.1531C10.8011 10.1531 8.67071 6.03831 6.54029 2.95219C5.70411 1.7414 5.47509 1.92348 4.40988 1.92348C3.26798 1.92348 2.28054 1.96669 1.21427 1.96669C0.149062 1.96669 0.0127156 2.62197 0.149062 2.95219C2.27947 8.09572 3.81017 11.3259 7.85795 15.3954C11.5702 19.1286 14.05 19.3271 16.1271 19.4115C16.6597 19.4331 16.1271 19.4115 17.1923 19.4115Z"/>
</svg>
