<svg width="23" height="21" viewBox="0 0 23 21" fill="none" xmlns="http://www.w3.org/2000/svg">
<path d="M11.015 20.7996C11.0056 20.7999 10.9966 20.7999 10.9872 20.7996C10.8812 20.7996 10.774 20.7658 10.6808 20.6949C10.3866 20.4716 3.44166 15.1751 0.882866 10.7071C0.879431 10.7011 0.876241 10.695 0.872806 10.689C0.301814 9.67622 0 8.51337 0 7.32455C0 3.72686 2.73743 0.799805 6.10203 0.799805C8.05008 0.799805 9.859 1.78948 11.001 3.43326C12.143 1.78948 13.9521 0.799805 15.8999 0.799805C19.2645 0.799805 22.002 3.72686 22.002 7.32455C22.002 8.51337 21.7002 9.67622 21.1292 10.689C21.126 10.695 21.1228 10.7011 21.1191 10.7071C18.5606 15.1751 11.6157 20.4716 11.3212 20.6949C11.2284 20.7658 11.1212 20.7996 11.015 20.7996Z" fill="white"/>
</svg>
