<svg width="24" height="18" viewBox="0 0 24 18" fill="none" xmlns="http://www.w3.org/2000/svg">
<path d="M16.587 9.092H9.72499C9.50099 9.092 9.30499 8.944 9.24399 8.729C8.80499 7.18 7.80098 6.088 6.25898 5.483C6.06298 5.43799 5.90798 5.276 5.87798 5.06999C5.84498 4.84799 5.96798 4.633 6.16698 4.541C6.17398 4.532 6.56798 4.249 7.62898 2.728C8.49298 1.472 9.60298 1.409 9.81598 1.409L23.31 1.37C23.586 1.37 23.81 1.594 23.81 1.87V3.857C23.81 4.133 23.586 4.357 23.31 4.357H17.123L17.087 8.59599C17.085 8.871 16.861 9.092 16.587 9.092ZM10.091 8.092H16.091L16.127 3.853C16.129 3.579 16.353 3.357 16.627 3.357H22.81V2.37L9.85098 2.41C9.73498 2.403 9.04698 2.432 8.45098 3.297C7.98998 3.958 7.59198 4.478 7.26798 4.844C8.62698 5.547 9.59098 6.656 10.091 8.092Z" fill="white"/>
<path d="M5.03799 17.9159C4.69299 17.9159 4.31799 17.9109 3.86699 17.9049C3.18999 17.8959 2.33999 17.8839 1.15899 17.8839C0.940986 17.8839 0.748986 17.7429 0.681986 17.5359C-0.805014 12.8799 1.11299 8.19994 5.94399 4.69294L6.06599 4.60294C6.19899 4.49794 6.37599 4.46494 6.53999 4.51994C9.51099 5.53294 10.184 8.40494 10.211 8.52594C10.24 8.65994 10.214 8.79994 10.138 8.91394C10.062 9.02794 9.94299 9.10494 9.80799 9.12894C7.51999 9.52394 7.48399 10.5129 7.45399 11.3079C7.41699 12.2809 7.45299 14.4049 7.47499 15.6739C7.48399 16.1619 7.48999 16.5379 7.48999 16.7019C7.48999 16.9639 7.40399 17.8229 6.30399 17.8839C5.86899 17.9079 5.47899 17.9159 5.03799 17.9159ZM1.53099 16.8839C2.52699 16.8869 3.27299 16.8969 3.87999 16.9049C4.32599 16.9109 4.69699 16.9159 5.03699 16.9159C5.03799 16.9159 5.03799 16.9159 5.03799 16.9159C5.45899 16.9159 5.83199 16.9089 6.24799 16.8859C6.48899 16.8719 6.48899 16.8399 6.48899 16.7019C6.48899 16.5399 6.48299 16.1709 6.47399 15.6899C6.45299 14.4109 6.41599 12.2689 6.45299 11.2699C6.48199 10.4819 6.54099 8.89694 9.07599 8.25994C8.79299 7.53794 8.07099 6.20494 6.45699 5.55594C3.88899 7.44094 -0.0280137 11.3479 1.53099 16.8839Z" fill="white"/>
<path d="M13.155 12.945C11.97 12.945 11.022 12.577 10.337 11.852C9.12399 10.57 9.21699 8.64604 9.22199 8.56404C9.23699 8.29904 9.45499 8.09204 9.72099 8.09204H11.285C11.528 8.09204 11.735 8.26704 11.777 8.50504C11.836 8.83704 12.044 9.23504 12.277 9.58304C12.368 8.91704 12.593 8.41704 12.609 8.38404C12.69 8.20604 12.868 8.09204 13.063 8.09204H16.589C16.855 8.09204 17.073 8.29904 17.088 8.56404C17.093 8.64604 17.186 10.57 15.973 11.852C15.288 12.577 14.34 12.945 13.155 12.945ZM10.237 9.09204C10.287 9.63604 10.464 10.533 11.067 11.169C11.556 11.684 12.258 11.944 13.155 11.944C14.052 11.944 14.754 11.683 15.243 11.169C15.847 10.533 16.023 9.63604 16.073 9.09204H13.411C13.292 9.46604 13.14 10.135 13.326 10.732C13.382 10.913 13.332 11.109 13.195 11.241C13.058 11.372 12.859 11.416 12.683 11.352C12.095 11.146 11.236 10.016 10.906 9.09204H10.237Z" fill="white"/>
<path d="M6.333 5.49401C6.275 5.49401 6.219 5.48401 6.163 5.46501C6.006 5.40701 5.887 5.27501 5.848 5.11301C5.826 5.03201 5.619 4.38701 4.608 4.34401C4.344 4.33201 4.134 4.11701 4.129 3.85401C4.124 3.58901 4.325 3.36801 4.588 3.34601C4.746 3.33301 4.89 3.31801 5.023 3.30301C6.04 3.19601 6.616 3.29801 7.363 3.99801C7.552 4.17501 7.576 4.46601 7.417 4.67001C7.184 4.97001 6.692 5.34901 6.636 5.39101C6.548 5.45801 6.442 5.49401 6.333 5.49401Z" fill="white"/>
<path d="M15.128 4.297H10.815C10.539 4.297 10.315 4.073 10.315 3.797C10.315 3.521 10.539 3.297 10.815 3.297H15.128C15.404 3.297 15.628 3.521 15.628 3.797C15.628 4.073 15.404 4.297 15.128 4.297Z" fill="white"/>
<path d="M15.128 5.68103H10.815C10.539 5.68103 10.315 5.45703 10.315 5.18103C10.315 4.90503 10.539 4.68103 10.815 4.68103H15.128C15.404 4.68103 15.628 4.90503 15.628 5.18103C15.628 5.45703 15.404 5.68103 15.128 5.68103Z" fill="white"/>
<path d="M15.128 7.06396H10.815C10.539 7.06396 10.315 6.83996 10.315 6.56396C10.315 6.28796 10.539 6.06396 10.815 6.06396H15.128C15.404 6.06396 15.628 6.28796 15.628 6.56396C15.628 6.83996 15.404 7.06396 15.128 7.06396Z" fill="white"/>
<path d="M3.92997 16.07C2.79197 16.07 1.86697 15.145 1.86697 14.007C1.86697 12.869 2.79197 11.944 3.92997 11.944C5.06797 11.944 5.99297 12.869 5.99297 14.007C5.99297 15.145 5.06797 16.07 3.92997 16.07ZM3.92997 12.945C3.34397 12.945 2.86697 13.422 2.86697 14.008C2.86697 14.594 3.34397 15.07 3.92997 15.07C4.51597 15.07 4.99297 14.593 4.99297 14.007C4.99297 13.421 4.51597 12.945 3.92997 12.945Z" fill="white"/>
<path d="M21.982 2.36998C21.706 2.36998 21.482 2.14598 21.482 1.86998V0.583984C21.482 0.307984 21.706 0.0839844 21.982 0.0839844C22.258 0.0839844 22.482 0.307984 22.482 0.583984V1.86998C22.482 2.14598 22.258 2.36998 21.982 2.36998Z" fill="white"/>
</svg>
