<svg width="24" height="24" viewBox="0 0 24 24" fill="none" xmlns="http://www.w3.org/2000/svg">
<path d="M13.3319 8.45441C12.8169 8.45396 12.3178 8.63222 11.9196 8.95881C11.5213 9.28539 11.2487 9.74007 11.1481 10.2453C11.0475 10.7505 11.1253 11.275 11.3681 11.7293C11.6108 12.1836 12.0036 12.5396 12.4795 12.7365C12.9553 12.9334 13.4847 12.9591 13.9773 12.8092C14.47 12.6593 14.8954 12.3431 15.181 11.9144C15.4666 11.4858 15.5947 10.9713 15.5435 10.4587C15.4923 9.94612 15.265 9.46716 14.9002 9.10353C14.6946 8.8971 14.4501 8.73345 14.181 8.62204C13.9118 8.51062 13.6232 8.45365 13.3319 8.45441ZM14.1142 11.4589C13.9033 11.6599 13.6231 11.7719 13.3319 11.7719C13.0406 11.7719 12.7605 11.6599 12.5495 11.4589C12.3928 11.3038 12.2857 11.1055 12.2418 10.8893C12.1979 10.6732 12.2192 10.4488 12.3031 10.2448C12.3869 10.0408 12.5295 9.86627 12.7127 9.74347C12.8958 9.62067 13.1114 9.55511 13.3319 9.55511C13.5524 9.55511 13.7679 9.62067 13.9511 9.74347C14.1342 9.86627 14.2768 10.0408 14.3607 10.2448C14.4445 10.4488 14.4658 10.6732 14.4219 10.8893C14.3781 11.1055 14.2709 11.3038 14.1142 11.4589Z" fill="white"/>
<path d="M23.0647 0.149329L21.1255 2.08928C18.8601 0.86893 13.8806 3.63976 12.4791 5.05671L7.34016 10.1866C6.81381 9.81201 6.18873 9.60094 5.54311 9.57983C4.89748 9.55872 4.25996 9.7285 3.71028 10.0679L1.44856 11.4552C1.05747 11.6953 0.725835 12.0209 0.478584 12.4076C0.231333 12.7943 0.0748906 13.232 0.0210097 13.6878C-0.0328713 14.1437 0.0172105 14.6058 0.167492 15.0396C0.317774 15.4733 0.564349 15.8673 0.888691 16.192L1.50418 16.8077C1.60846 16.9119 1.74981 16.9704 1.8972 16.9704C2.04458 16.9704 2.18594 16.9119 2.29022 16.8077L4.14409 14.9531C4.22329 15.5678 4.50358 16.139 4.94125 16.5777L5.79033 17.4272L4.35172 18.8701C4.29708 18.921 4.25325 18.9824 4.22285 19.0507C4.19246 19.1189 4.17611 19.1926 4.17479 19.2673C4.17348 19.342 4.18721 19.4162 4.21519 19.4855C4.24316 19.5548 4.28479 19.6177 4.3376 19.6706C4.39042 19.7234 4.45332 19.765 4.52258 19.793C4.59183 19.821 4.666 19.8348 4.74068 19.8334C4.81536 19.8321 4.889 19.8158 4.95722 19.7854C5.02545 19.7549 5.08685 19.7111 5.13776 19.6564L6.5912 18.2024L7.44027 19.0518C7.87809 19.4913 8.44924 19.773 9.06426 19.853L7.21039 21.7077C7.10624 21.812 7.04774 21.9534 7.04774 22.1008C7.04774 22.2483 7.10624 22.3897 7.21039 22.494L7.82587 23.1098C8.10615 23.392 8.43947 23.616 8.80664 23.7687C9.17381 23.9215 9.56757 24.0001 9.96524 24C10.0892 24 10.213 23.9926 10.336 23.9777C10.7908 23.9242 11.2275 23.7677 11.6129 23.5203C11.9984 23.2729 12.3224 22.941 12.5607 22.5497L13.9474 20.287C14.2867 19.7371 14.4564 19.0993 14.4353 18.4534C14.4142 17.8075 14.2032 17.1822 13.8287 16.6556L18.9565 11.5257C19.8464 10.6355 20.9216 8.84759 21.5705 7.17471C22.1044 5.80598 22.5493 4.02924 21.9153 2.87194L23.8507 0.935697C23.949 0.830224 24.0025 0.69072 23.9999 0.546577C23.9974 0.402433 23.939 0.264904 23.8371 0.162963C23.7352 0.0610227 23.5977 0.00262993 23.4537 8.66839e-05C23.3096 -0.00245656 23.1701 0.0510483 23.0647 0.149329ZM1.9009 15.6282L1.67844 15.4056C1.4738 15.1987 1.31871 14.9482 1.22482 14.6727C1.13093 14.3972 1.1007 14.1041 1.13638 13.8152C1.17207 13.5264 1.27275 13.2494 1.43086 13.0051C1.58897 12.7608 1.80039 12.5556 2.04921 12.4048L4.27757 11.0175C4.61388 10.8098 5.00036 10.6977 5.39556 10.6931C5.79075 10.6886 6.17973 10.7917 6.52075 10.9916L1.9009 15.6282ZM12.9908 19.7084L11.6041 21.971C11.4533 22.22 11.2482 22.4315 11.004 22.5896C10.7598 22.7478 10.4829 22.8485 10.1942 22.8842C9.90548 22.9199 9.61244 22.8897 9.33709 22.7958C9.06174 22.7018 8.81127 22.5467 8.6045 22.342L8.38204 22.1194L13.013 17.4605C13.2156 17.8034 13.3204 18.1953 13.3158 18.5936C13.3112 18.9919 13.1975 19.3814 12.9871 19.7195L12.9908 19.7084ZM18.1816 10.7319L10.6512 18.2655C10.3294 18.5866 9.89332 18.767 9.43874 18.767C8.98416 18.767 8.54813 18.5866 8.22631 18.2655L7.37724 17.416L10.6104 14.1815C10.7115 14.0781 10.7684 13.9393 10.769 13.7946C10.7696 13.6499 10.7138 13.5107 10.6135 13.4065C10.5131 13.3023 10.3762 13.2413 10.2316 13.2364C10.0871 13.2315 9.9463 13.2831 9.83918 13.3803L6.60603 16.6148L5.76066 15.7839C5.43961 15.462 5.2593 15.0258 5.2593 14.571C5.2593 14.1162 5.43961 13.68 5.76066 13.3581L7.78138 11.3365L13.2651 5.83195C13.4896 5.6106 13.73 5.40604 13.9844 5.21991C15.3112 7.06836 16.9276 8.6904 18.7711 10.0234C18.5885 10.2763 18.3878 10.5156 18.1705 10.7393L18.1816 10.7319ZM20.5471 6.76668C20.2305 7.57072 19.846 8.34629 19.3977 9.08498C17.6748 7.84257 16.1604 6.33382 14.9114 4.6153C15.6498 4.16684 16.425 3.78216 17.2287 3.46543C18.0211 3.1268 18.8672 2.93091 19.7277 2.88678C20.1096 2.8532 20.4896 2.96885 20.7881 3.20949C21.2998 3.7362 21.2071 5.053 20.536 6.7741L20.5471 6.76668Z" fill="white"/>
<path d="M3.143 17.2009L0.847906 19.4969C0.793263 19.5479 0.749436 19.6093 0.719038 19.6775C0.688641 19.7458 0.672296 19.8195 0.670979 19.8942C0.669661 19.9689 0.683398 20.0431 0.71137 20.1124C0.739342 20.1817 0.780976 20.2446 0.833788 20.2974C0.8866 20.3503 0.949508 20.3919 1.01876 20.4199C1.08801 20.4479 1.16219 20.4616 1.23686 20.4603C1.31154 20.459 1.38519 20.4426 1.45341 20.4122C1.52163 20.3818 1.58303 20.338 1.63395 20.2833L3.92904 17.9873C4.02728 17.8818 4.08076 17.7423 4.07822 17.5981C4.07568 17.454 4.01731 17.3165 3.91541 17.2145C3.81351 17.1126 3.67604 17.0542 3.53196 17.0516C3.38787 17.0491 3.24843 17.1026 3.143 17.2009Z" fill="white"/>
<path d="M3.7659 23.2025C3.87018 23.3067 4.01154 23.3652 4.15892 23.3652C4.3063 23.3652 4.44766 23.3067 4.55194 23.2025L6.84703 20.9065C6.94527 20.801 6.99875 20.6615 6.99621 20.5173C6.99367 20.3732 6.9353 20.2357 6.8334 20.1337C6.7315 20.0318 6.59403 19.9734 6.44995 19.9708C6.30587 19.9683 6.16642 20.0218 6.06099 20.1201L3.7659 22.4161C3.66175 22.5205 3.60325 22.6619 3.60325 22.8093C3.60325 22.9568 3.66175 23.0982 3.7659 23.2025Z" fill="white"/>
<path d="M3.46557 20.5429C3.36129 20.4388 3.21993 20.3802 3.07255 20.3802C2.92517 20.3802 2.78381 20.4388 2.67953 20.5429L0.877567 22.3457C0.773332 22.4524 0.71575 22.5962 0.717488 22.7454C0.719226 22.8946 0.780143 23.037 0.886837 23.1413C0.993531 23.2456 1.13726 23.3032 1.28641 23.3014C1.43556 23.2997 1.57791 23.2388 1.68215 23.132L3.48411 21.3293C3.58584 21.2226 3.64103 21.0798 3.63756 20.9323C3.63408 20.7848 3.57222 20.6448 3.46557 20.5429Z" fill="white"/>
</svg>
